<svg xmlns="http://www.w3.org/2000/svg"
  width="100px" height="100px" viewBox="0 0 1170.000000 650.000000"
 preserveAspectRatio="xMidYMid meet">
<g transform="translate(0.000000,709.000000) scale(0.100000,-0.100000)"
fill="#000000" stroke="none">
<path d="M8175 6314 c-530 -69 -1014 -274 -1409 -597 -114 -93 -121 -109 -78
-175 139 -214 180 -288 287 -514 30 -65 60 -118 66 -118 5 0 64 52 130 115 66
63 123 115 128 115 4 0 19 10 32 21 56 50 173 120 299 181 159 77 190 90 290
118 41 12 88 25 103 30 15 5 71 17 125 27 139 25 517 25 652 0 101 -19 276
-65 350 -92 170 -62 448 -227 564 -334 22 -22 56 -51 74 -66 42 -35 187 -197
232 -260 151 -209 269 -466 318 -690 41 -186 44 -215 49 -406 4 -156 2 -217
-12 -295 -40 -238 -85 -383 -180 -582 -51 -107 -159 -282 -201 -327 -11 -11
-46 -53 -79 -94 -56 -70 -157 -167 -237 -228 -20 -15 -62 -48 -94 -72 -168
-129 -473 -263 -712 -312 -258 -53 -687 -40 -887 26 -22 7 -74 23 -115 35
-456 139 -913 546 -1122 1000 -116 252 -167 476 -188 825 -28 473 -108 799
-285 1160 -116 235 -220 388 -412 607 -338 383 -872 706 -1344 813 -41 9 -92
21 -114 26 -22 5 -69 14 -105 19 -36 5 -83 14 -105 19 -21 5 -167 10 -324 11
-287 1 -340 -4 -531 -45 -36 -8 -83 -17 -105 -20 -71 -11 -327 -96 -455 -152
-160 -70 -383 -193 -445 -246 -5 -4 -52 -38 -104 -74 -118 -84 -357 -315 -468
-453 -183 -227 -356 -527 -423 -735 -13 -38 -26 -74 -30 -80 -4 -5 -17 -44
-29 -85 -13 -41 -27 -86 -32 -100 -10 -28 -22 -83 -44 -205 -8 -44 -19 -105
-24 -135 -24 -125 -18 -647 8 -775 7 -33 19 -96 28 -140 26 -137 114 -409 175
-545 74 -165 188 -360 280 -480 32 -41 80 -104 108 -140 46 -60 50 -69 50
-120 0 -30 -5 -84 -10 -120 -10 -61 -19 -142 -55 -480 -8 -74 -19 -182 -25
-240 -6 -58 -16 -134 -21 -170 -6 -36 -12 -87 -12 -115 l-2 -50 38 2 c21 1 52
9 70 17 18 8 88 37 157 64 69 28 159 64 200 80 41 17 185 74 320 127 135 53
259 102 275 109 145 65 203 67 374 17 102 -31 153 -42 306 -67 272 -45 553
-45 820 0 280 47 386 77 640 177 70 28 280 135 340 174 28 17 73 46 100 63 86
54 305 226 327 257 15 20 8 43 -27 91 -19 27 -38 56 -42 64 -4 8 -22 39 -41
69 -32 50 -67 115 -146 266 -30 58 -57 117 -90 198 -8 20 -20 37 -27 37 -7 0
-55 -42 -108 -94 -134 -130 -163 -154 -271 -226 -428 -282 -904 -378 -1420
-286 -434 76 -839 318 -1125 671 -73 90 -195 271 -195 289 0 5 -6 17 -13 25
-20 23 -123 267 -142 337 -99 354 -98 792 2 1109 104 328 247 561 500 812 92
92 273 235 342 270 20 10 38 21 41 24 6 6 156 79 225 109 88 39 219 76 390
112 87 18 133 21 350 20 235 0 256 -2 360 -27 61 -15 126 -30 145 -34 90 -19
374 -145 480 -213 20 -13 51 -32 69 -43 55 -33 262 -208 321 -271 184 -197
335 -450 418 -699 63 -190 87 -313 102 -520 5 -77 14 -201 20 -275 41 -541
241 -1048 586 -1485 78 -100 316 -338 402 -404 212 -162 315 -228 508 -325 73
-36 135 -66 138 -66 3 0 25 -9 49 -20 90 -41 225 -84 372 -118 257 -60 315
-66 630 -67 290 0 312 2 520 42 44 9 98 19 120 23 22 4 79 19 128 34 48 14
100 26 115 26 15 0 66 -16 112 -36 47 -19 135 -53 195 -76 61 -22 135 -52 165
-65 30 -14 78 -34 107 -43 29 -10 67 -25 85 -33 18 -8 116 -47 218 -87 102
-39 208 -82 236 -95 90 -41 133 -51 150 -34 11 11 12 22 5 45 -5 16 -12 65
-15 109 -2 44 -9 114 -15 155 -15 108 -31 250 -41 365 -5 55 -14 132 -20 170
-10 70 -27 226 -37 340 -5 58 -4 61 34 105 162 186 340 475 428 695 20 50 42
104 49 120 8 17 21 55 30 85 9 30 21 69 26 85 89 298 130 720 96 982 -9 67
-16 136 -16 153 0 53 -60 316 -99 435 -72 218 -119 330 -202 479 -140 250
-256 403 -459 606 -450 451 -973 706 -1610 785 -154 19 -452 18 -605 -1z"/>
</g>
</svg>
